<svg width="16" height="20" viewBox="0 0 16 20" fill="none" xmlns="http://www.w3.org/2000/svg">
<path d="M14.086 2.85682H14.0306L14.0481 2.66588C14.0485 2.66171 14.0489 2.65753 14.0491 2.65336C14.1036 1.87965 13.8564 1.11408 13.3879 0.605459C13.0283 0.214996 12.563 0 12.0775 0C12.0773 0 12.077 0 12.0768 0L3.24587 0.00358652C2.76029 0.00378144 2.29471 0.21909 1.93488 0.609826C1.46637 1.11864 1.21892 1.88421 1.27295 2.65777C1.27326 2.66194 1.27361 2.66611 1.27395 2.67028L1.29137 2.86134C0.57021 2.91666 0 3.52746 0 4.27088V5.13761C0 5.91733 0.627092 6.55168 1.39789 6.55168H1.62796L2.80615 19.469C2.83359 19.7698 3.08312 20 3.38179 20H3.38206L11.9329 19.9963C12.2313 19.9961 12.4806 19.7661 12.5082 19.4655L13.6919 6.55172H14.086C14.8568 6.55172 15.4839 5.91737 15.4839 5.13765V4.27092C15.4839 3.49117 14.8568 2.85682 14.086 2.85682V2.85682ZM2.78087 1.40693C2.87906 1.30031 3.03954 1.17314 3.24629 1.17307L12.0773 1.16952H12.0775C12.2839 1.16952 12.4441 1.29629 12.5421 1.40268C12.7947 1.67689 12.9269 2.11082 12.8963 2.56448L12.8696 2.85682H2.45206L2.42586 2.56947C2.39553 2.11574 2.52806 1.68153 2.78087 1.40693V1.40693ZM11.8102 14.4137H3.50616L3.04698 9.37957H12.2716L11.8102 14.4137ZM3.909 18.8302L3.61283 15.5832H11.703L11.4057 18.827L3.909 18.8302ZM12.3789 8.21005H2.9403L2.78904 6.55172H12.5309L12.3789 8.21005ZM14.3277 5.13765C14.3277 5.2725 14.2193 5.3822 14.086 5.3822H1.39793C1.26463 5.3822 1.15618 5.2725 1.15618 5.13765V4.27092C1.15618 4.13608 1.26463 4.02638 1.39793 4.02638H14.0859C14.2192 4.02638 14.3277 4.13608 14.3277 4.27092V5.13765H14.3277Z" fill="#EEDCC6"/>
</svg>
